<?xml version="1.0" encoding="UTF-8"?>
<svg xmlns="http://www.w3.org/2000/svg" xmlns:xlink="http://www.w3.org/1999/xlink" width="16pt" height="16pt" viewBox="0 0 16 16" version="1.1">
<g id="surface1">
<path style=" stroke:none;fill-rule:nonzero;fill:#6E6E6E;" d="M 8 13.332031 C 10.945312 13.332031 13.332031 10.945312 13.332031 8 C 13.332031 5.054688 10.945312 2.667969 8 2.667969 C 5.054688 2.667969 2.667969 5.054688 2.667969 8 C 2.667969 10.945312 5.054688 13.332031 8 13.332031 M 8 1.332031 C 11.683594 1.332031 14.667969 4.316406 14.667969 8 C 14.667969 11.683594 11.683594 14.667969 8 14.667969 C 4.3125 14.667969 1.332031 11.667969 1.332031 8 C 1.332031 4.316406 4.316406 1.332031 8 1.332031 M 8.332031 4.667969 L 8.332031 8.167969 L 11.332031 9.945312 L 10.832031 10.765625 L 7.332031 8.667969 L 7.332031 4.667969 Z M 8.332031 4.667969 "/>
</g>
</svg>
