<?xml version="1.0" encoding="UTF-8"?>
<svg xmlns="http://www.w3.org/2000/svg" xmlns:xlink="http://www.w3.org/1999/xlink" width="16pt" height="16pt" viewBox="0 0 16 16" version="1.1">
<g id="surface1">
<path style=" stroke:none;fill:#AFB1B3;" d="M 8 4.667969 C 9.839844 4.667969 11.332031 6.160156 11.332031 8 C 11.332031 9.839844 9.839844 11.332031 8 11.332031 C 6.160156 11.332031 4.667969 9.839844 4.667969 8 C 4.667969 6.160156 6.160156 4.667969 8 4.667969 M 8 6 C 6.894531 6 6 6.894531 6 8 C 6 9.105469 6.894531 10 8 10 C 9.105469 10 10 9.105469 10 8 C 10 6.894531 9.105469 6 8 6 M 8 1.332031 L 9.59375 3.613281 C 9.101562 3.433594 8.558594 3.332031 8 3.332031 C 7.441406 3.332031 6.898438 3.433594 6.40625 3.613281 L 8 1.332031 M 2.226562 4.667969 L 5 4.433594 C 4.601562 4.773438 4.238281 5.1875 3.960938 5.667969 C 3.667969 6.160156 3.5 6.667969 3.40625 7.191406 L 2.226562 4.667969 M 2.238281 11.332031 L 3.414062 8.820312 C 3.507812 9.332031 3.6875 9.851562 3.964844 10.332031 C 4.246094 10.828125 4.605469 11.238281 5 11.578125 L 2.238281 11.332031 M 13.765625 4.667969 L 12.585938 7.191406 C 12.492188 6.667969 12.3125 6.152344 12.035156 5.667969 C 11.753906 5.1875 11.398438 4.765625 11 4.425781 L 13.765625 4.667969 M 13.761719 11.332031 L 11 11.574219 C 11.394531 11.234375 11.746094 10.8125 12.027344 10.332031 C 12.308594 9.847656 12.488281 9.332031 12.578125 8.808594 L 13.761719 11.332031 M 8 14.667969 L 6.394531 12.375 C 6.886719 12.554688 7.425781 12.667969 8 12.667969 C 8.546875 12.667969 9.085938 12.554688 9.578125 12.375 Z M 8 14.667969 "/>
</g>
</svg>
