<?xml version="1.0" encoding="UTF-8"?>
<svg xmlns="http://www.w3.org/2000/svg" xmlns:xlink="http://www.w3.org/1999/xlink" width="16pt" height="16pt" viewBox="0 0 16 16" version="1.1">
<g id="surface1">
<path style=" stroke:none;fill:#6E6E6E;" d="M 4 10.667969 C 2.160156 10.667969 0.667969 9.175781 0.667969 7.332031 C 0.667969 5.492188 2.160156 4 4 4 C 4.667969 2.433594 6.199219 1.332031 8 1.332031 C 10.285156 1.332031 12.160156 3.105469 12.332031 5.351562 L 12.667969 5.332031 C 14.140625 5.332031 15.332031 6.527344 15.332031 8 C 15.332031 9.472656 14.140625 10.667969 12.667969 10.667969 L 12 10.667969 C 11.632812 10.667969 11.332031 10.367188 11.332031 10 C 11.332031 9.632812 11.632812 9.332031 12 9.332031 L 12.667969 9.332031 C 13.402344 9.332031 14 8.738281 14 8 C 14 7.261719 13.402344 6.667969 12.667969 6.667969 L 11.332031 6.667969 L 11.332031 6 C 11.332031 4.160156 9.839844 2.667969 8 2.667969 C 6.332031 2.667969 4.964844 3.878906 4.707031 5.460938 C 4.488281 5.378906 4.246094 5.332031 4 5.332031 C 2.894531 5.332031 2 6.230469 2 7.332031 C 2 8.4375 2.894531 9.332031 4 9.332031 L 4.667969 9.332031 C 5.035156 9.332031 5.332031 9.632812 5.332031 10 C 5.332031 10.367188 5.035156 10.667969 4.667969 10.667969 L 4 10.667969 M 8 7.332031 L 10 7.332031 L 8.667969 10 L 10 10 L 7.5 14.667969 L 8 11.332031 L 6.332031 11.332031 Z M 8 7.332031 "/>
</g>
</svg>
