<?xml version="1.0" encoding="UTF-8"?>
<svg xmlns="http://www.w3.org/2000/svg" xmlns:xlink="http://www.w3.org/1999/xlink" width="16pt" height="16pt" viewBox="0 0 16 16" version="1.1">
<g id="surface1">
<path style=" stroke:none;fill:#AFB1B3;" d="M 4 12.667969 C 2.160156 12.667969 0.667969 11.175781 0.667969 9.332031 C 0.667969 7.492188 2.160156 6 4 6 C 4.667969 4.433594 6.199219 3.332031 8 3.332031 C 10.285156 3.332031 12.160156 5.105469 12.332031 7.351562 L 12.667969 7.332031 C 14.140625 7.332031 15.332031 8.527344 15.332031 10 C 15.332031 11.472656 14.140625 12.667969 12.667969 12.667969 L 4 12.667969 M 12.667969 8.667969 L 11.332031 8.667969 L 11.332031 8 C 11.332031 6.160156 9.839844 4.667969 8 4.667969 C 6.332031 4.667969 4.964844 5.878906 4.707031 7.460938 C 4.488281 7.378906 4.246094 7.332031 4 7.332031 C 2.894531 7.332031 2 8.230469 2 9.332031 C 2 10.4375 2.894531 11.332031 4 11.332031 L 12.667969 11.332031 C 13.402344 11.332031 14 10.738281 14 10 C 14 9.261719 13.402344 8.667969 12.667969 8.667969 Z M 12.667969 8.667969 "/>
</g>
</svg>
