<?xml version="1.0" encoding="UTF-8"?>
<svg xmlns="http://www.w3.org/2000/svg" xmlns:xlink="http://www.w3.org/1999/xlink" width="16pt" height="16pt" viewBox="0 0 16 16" version="1.1">
<g id="surface1">
<path style=" stroke:none;fill:#6E6E6E;" d="M 8.492188 3.648438 C 10.066406 4.332031 10.898438 6.019531 10.613281 7.640625 C 11.460938 8.375 12 9.460938 12 10.667969 L 12 10.78125 C 12.207031 10.707031 12.433594 10.667969 12.667969 10.667969 C 13.769531 10.667969 14.667969 11.5625 14.667969 12.667969 C 14.667969 13.769531 13.769531 14.667969 12.667969 14.667969 L 4 14.667969 C 2.527344 14.667969 1.332031 13.472656 1.332031 12 C 1.332031 10.527344 2.527344 9.332031 4 9.332031 L 4.179688 9.332031 C 3.332031 8.300781 3.066406 6.828125 3.667969 5.507812 C 4.480469 3.667969 6.648438 2.828125 8.492188 3.648438 M 7.953125 4.867188 C 6.773438 4.332031 5.394531 4.875 4.875 6.046875 C 4.566406 6.726562 4.621094 7.480469 4.941406 8.085938 C 5.667969 7.21875 6.773438 6.667969 8 6.667969 C 8.464844 6.667969 8.921875 6.746094 9.332031 6.894531 C 9.292969 6.039062 8.785156 5.238281 7.953125 4.867188 M 9.035156 2.425781 C 8.667969 2.265625 8.300781 2.152344 7.921875 2.078125 L 9.578125 1.214844 L 10.179688 3.140625 C 9.839844 2.859375 9.460938 2.621094 9.035156 2.425781 M 4.058594 2.960938 C 3.734375 3.191406 3.445312 3.460938 3.199219 3.753906 L 3.273438 1.878906 L 5.246094 2.332031 C 4.832031 2.472656 4.433594 2.6875 4.058594 2.960938 M 12 6.472656 C 11.941406 6.078125 11.851562 5.699219 11.726562 5.332031 L 13.3125 6.332031 L 11.945312 7.820312 C 12.019531 7.386719 12.035156 6.933594 12 6.472656 M 2.027344 7.535156 C 2.074219 7.933594 2.160156 8.3125 2.285156 8.667969 L 0.707031 7.667969 L 2.066406 6.1875 C 2 6.621094 1.980469 7.074219 2.027344 7.535156 M 12.667969 12 L 10.667969 12 L 10.667969 10.667969 C 10.667969 9.195312 9.472656 8 8 8 C 6.527344 8 5.332031 9.195312 5.332031 10.667969 L 4 10.667969 C 3.261719 10.667969 2.667969 11.261719 2.667969 12 C 2.667969 12.738281 3.261719 13.332031 4 13.332031 L 12.667969 13.332031 C 13.035156 13.332031 13.332031 13.035156 13.332031 12.667969 C 13.332031 12.296875 13.035156 12 12.667969 12 Z M 12.667969 12 "/>
</g>
</svg>
