<?xml version="1.0" encoding="UTF-8"?>
<svg xmlns="http://www.w3.org/2000/svg" xmlns:xlink="http://www.w3.org/1999/xlink" width="16pt" height="16pt" viewBox="0 0 16 16" version="1.1">
<g id="surface1">
<path style=" stroke:none;fill:#AFB1B3;" d="M 6 8 C 6.351562 8.09375 6.566406 8.460938 6.472656 8.8125 L 5.605469 12.035156 C 5.511719 12.394531 5.148438 12.601562 4.792969 12.507812 C 4.433594 12.414062 4.226562 12.046875 4.332031 11.691406 L 5.1875 8.472656 C 5.28125 8.113281 5.648438 7.90625 6 8 M 8.667969 8 C 9.019531 8.09375 9.234375 8.460938 9.140625 8.8125 L 7.761719 13.964844 C 7.667969 14.332031 7.300781 14.535156 6.941406 14.441406 C 6.585938 14.332031 6.375 13.980469 6.464844 13.621094 L 7.851562 8.472656 C 7.945312 8.113281 8.3125 7.90625 8.667969 8 M 11.332031 8 C 11.6875 8.09375 11.898438 8.460938 11.808594 8.8125 L 10.941406 12.035156 C 10.847656 12.394531 10.480469 12.601562 10.125 12.507812 C 9.765625 12.414062 9.558594 12.046875 9.667969 11.691406 L 10.519531 8.472656 C 10.613281 8.113281 10.980469 7.90625 11.332031 8 M 11.332031 6.667969 L 11.332031 6 C 11.332031 4.160156 9.839844 2.667969 8 2.667969 C 6.332031 2.667969 4.964844 3.878906 4.707031 5.460938 C 4.488281 5.378906 4.246094 5.332031 4 5.332031 C 2.894531 5.332031 2 6.230469 2 7.332031 C 2 8.074219 2.398438 8.71875 3 9.066406 L 3 9.058594 C 3.332031 9.246094 3.425781 9.667969 3.246094 9.972656 C 3.058594 10.285156 2.667969 10.398438 2.332031 10.214844 L 2.332031 10.21875 C 1.332031 9.648438 0.667969 8.566406 0.667969 7.332031 C 0.667969 5.492188 2.160156 4 4 4 C 4.667969 2.433594 6.199219 1.332031 8 1.332031 C 10.285156 1.332031 12.160156 3.105469 12.332031 5.351562 L 12.667969 5.332031 C 14.140625 5.332031 15.332031 6.527344 15.332031 8 C 15.332031 9 14.800781 9.847656 14 10.308594 C 13.667969 10.488281 13.273438 10.378906 13.085938 10.058594 C 12.90625 9.738281 13 9.332031 13.332031 9.148438 L 13.332031 9.152344 C 13.734375 8.925781 14 8.492188 14 8 C 14 7.261719 13.402344 6.667969 12.667969 6.667969 Z M 11.332031 6.667969 "/>
</g>
</svg>
