<?xml version="1.0" encoding="UTF-8"?>
<svg xmlns="http://www.w3.org/2000/svg" xmlns:xlink="http://www.w3.org/1999/xlink" width="13pt" height="13pt" viewBox="0 0 13 13" version="1.1">
    <g id="surface1">
        <path style=" stroke:none;fill-rule:nonzero;fill:#6E6E6E;" d="M 6.273438 0.171875 C 5.75 0.273438 5.113281 0.496094 4.589844 0.761719 C 3.398438 1.371094 2.84375 1.808594 2.578125 2.339844 C 2.507812 2.492188 2.351562 2.707031 2.234375 2.820312 C 1.808594 3.230469 1.664062 3.695312 1.679688 4.621094 C 1.6875 5.191406 1.675781 5.28125 1.574219 5.507812 C 1.355469 5.976562 1.433594 6.886719 1.738281 7.484375 C 1.890625 7.785156 2.265625 8.160156 2.5625 8.304688 C 2.820312 8.429688 2.839844 8.449219 2.945312 8.773438 C 3.011719 8.960938 3.117188 9.207031 3.1875 9.3125 C 3.269531 9.445312 3.296875 9.535156 3.269531 9.578125 C 3.230469 9.632812 1.773438 10.539062 1.117188 10.914062 C 0.605469 11.207031 0.488281 11.363281 0.503906 11.742188 C 0.507812 11.882812 0.527344 12.023438 0.546875 12.054688 C 0.570312 12.085938 0.65625 12.304688 0.734375 12.542969 L 0.890625 12.976562 L 11.867188 13 L 12.109375 12.226562 C 12.292969 11.65625 12.367188 11.351562 12.378906 11.058594 L 12.402344 10.664062 L 12.082031 10.328125 C 11.902344 10.144531 11.601562 9.867188 11.410156 9.714844 C 11.222656 9.558594 11.046875 9.390625 11.019531 9.34375 C 10.984375 9.277344 11.03125 9.140625 11.195312 8.804688 C 11.429688 8.339844 11.664062 7.546875 11.800781 6.753906 C 11.972656 5.726562 11.949219 4.246094 11.734375 3.414062 C 11.492188 2.484375 11.207031 2.011719 10.414062 1.257812 C 9.839844 0.710938 9.367188 0.441406 8.65625 0.253906 C 8.136719 0.113281 6.816406 0.0703125 6.273438 0.171875 Z M 8.007812 1.035156 C 8.886719 1.222656 9.535156 1.554688 9.976562 2.046875 L 10.261719 2.355469 L 10.09375 2.441406 C 9.816406 2.585938 9.730469 2.71875 9.726562 3.011719 C 9.726562 3.25 9.734375 3.273438 9.839844 3.289062 C 9.90625 3.300781 10.039062 3.269531 10.136719 3.226562 C 10.308594 3.144531 10.324219 3.144531 10.585938 3.269531 C 10.902344 3.429688 10.992188 3.542969 11.09375 3.945312 C 11.210938 4.390625 11.1875 4.484375 11.03125 4.175781 C 10.886719 3.890625 10.726562 3.792969 10.585938 3.910156 C 10.492188 3.992188 10.484375 4.386719 10.582031 4.660156 L 10.652344 4.863281 L 10.394531 4.890625 C 9.988281 4.925781 9.871094 5.210938 10.152344 5.488281 C 10.277344 5.609375 10.339844 5.636719 10.5625 5.636719 C 10.703125 5.636719 10.902344 5.601562 11.003906 5.5625 C 11.101562 5.519531 11.195312 5.484375 11.210938 5.484375 C 11.257812 5.484375 11.183594 6.382812 11.089844 6.824219 C 11.015625 7.226562 10.992188 7.261719 10.882812 7.261719 C 10.816406 7.261719 10.667969 7.308594 10.5625 7.363281 C 10.449219 7.417969 10.359375 7.453125 10.359375 7.4375 C 10.359375 7.429688 10.425781 7.382812 10.511719 7.335938 C 10.703125 7.234375 10.804688 7.039062 10.847656 6.679688 L 10.882812 6.394531 L 10.652344 6.15625 C 10.09375 5.566406 9.660156 4.980469 9.484375 4.582031 C 9.347656 4.261719 9.253906 4.164062 9.089844 4.164062 C 8.882812 4.164062 8.820312 4.277344 8.855469 4.554688 C 8.9375 5.128906 9.1875 5.585938 9.8125 6.3125 C 9.972656 6.503906 10.105469 6.699219 10.105469 6.742188 C 10.101562 6.890625 9.015625 7.324219 8.824219 7.246094 C 8.78125 7.230469 8.730469 7.15625 8.714844 7.074219 C 8.667969 6.90625 8.542969 6.753906 8.445312 6.753906 C 8.332031 6.753906 8.175781 7.070312 8.175781 7.289062 C 8.175781 7.398438 8.210938 7.554688 8.25 7.632812 C 8.316406 7.765625 8.316406 7.773438 8.238281 7.753906 C 7.664062 7.597656 7.363281 7.554688 7.28125 7.621094 C 7.230469 7.664062 7.210938 7.734375 7.230469 7.820312 C 7.25 7.9375 7.230469 7.96875 7.09375 8.027344 C 6.765625 8.171875 6.886719 8.453125 7.550781 9.125 C 7.84375 9.421875 8.195312 9.523438 8.785156 9.480469 C 9.023438 9.460938 9.296875 9.421875 9.394531 9.390625 C 9.644531 9.308594 9.851562 9.101562 9.851562 8.9375 C 9.851562 8.765625 9.765625 8.683594 9.578125 8.679688 C 9.492188 8.671875 9.566406 8.652344 9.75 8.628906 C 10.007812 8.59375 10.140625 8.542969 10.371094 8.382812 L 10.664062 8.179688 L 10.507812 8.496094 C 10.421875 8.667969 10.226562 8.976562 10.074219 9.175781 C 9.851562 9.46875 9.726562 9.59375 9.40625 9.773438 C 8.835938 10.109375 8.429688 10.222656 7.871094 10.195312 C 7.480469 10.175781 7.375 10.152344 7.03125 9.984375 C 6.5625 9.75 6.070312 9.304688 5.625 8.699219 C 5.300781 8.265625 5.144531 8.160156 4.996094 8.28125 C 4.789062 8.453125 5.109375 9.144531 5.691406 9.765625 L 6.089844 10.191406 L 5.910156 10.273438 C 5.703125 10.375 5.503906 10.378906 5.128906 10.289062 C 4.792969 10.207031 4.566406 10.09375 4.414062 9.9375 C 4.226562 9.746094 3.808594 8.765625 3.691406 8.242188 C 3.675781 8.164062 3.71875 8.0625 3.8125 7.941406 C 4.1875 7.46875 3.777344 7.046875 3.304688 7.417969 C 3.066406 7.613281 2.753906 7.496094 2.503906 7.132812 C 2.371094 6.9375 2.234375 6.5625 2.234375 6.386719 C 2.234375 6.3125 2.25 6.308594 2.332031 6.359375 C 2.390625 6.394531 2.441406 6.503906 2.460938 6.648438 C 2.484375 6.773438 2.527344 6.957031 2.5625 7.046875 C 2.625 7.179688 2.660156 7.210938 2.792969 7.210938 C 2.910156 7.210938 2.960938 7.179688 2.996094 7.085938 C 3.023438 7.011719 3.03125 6.921875 3.015625 6.882812 C 2.996094 6.839844 3 6.71875 3.023438 6.617188 L 3.058594 6.429688 L 3.167969 6.632812 C 3.304688 6.875 3.5 6.925781 3.625 6.742188 C 3.671875 6.683594 3.707031 6.589844 3.707031 6.539062 C 3.707031 6.46875 3.746094 6.449219 3.914062 6.449219 C 4.164062 6.449219 4.457031 6.285156 4.5 6.125 C 4.515625 6.0625 4.480469 5.804688 4.421875 5.546875 C 4.285156 4.945312 4.289062 4.828125 4.449219 4.042969 C 4.570312 3.449219 4.574219 3.355469 4.523438 3.03125 C 4.46875 2.6875 4.46875 2.671875 4.601562 2.476562 C 4.675781 2.371094 4.824219 2.203125 4.925781 2.113281 C 5.371094 1.707031 6.386719 1.117188 6.792969 1.019531 C 7.089844 0.949219 7.628906 0.960938 8.007812 1.035156 Z M 3.859375 3.316406 C 3.859375 3.433594 3.824219 3.757812 3.78125 4.039062 C 3.742188 4.316406 3.707031 4.660156 3.707031 4.804688 L 3.707031 5.0625 L 3.46875 4.941406 C 3.265625 4.839844 3.164062 4.820312 2.875 4.835938 L 2.523438 4.851562 L 2.550781 4.382812 C 2.578125 3.835938 2.660156 3.667969 3.023438 3.390625 C 3.25 3.21875 3.734375 3.03125 3.824219 3.082031 C 3.84375 3.09375 3.859375 3.199219 3.859375 3.316406 Z M 11.050781 10.597656 L 11.597656 11.121094 L 11.542969 11.511719 C 11.507812 11.730469 11.445312 12.03125 11.398438 12.175781 C 11.324219 12.4375 11.3125 12.441406 11.125 12.441406 C 11 12.441406 10.902344 12.40625 10.84375 12.339844 C 10.761719 12.25 10.761719 12.207031 10.816406 11.835938 C 10.917969 11.175781 10.742188 10.273438 10.484375 10.171875 C 10.445312 10.15625 10.410156 10.121094 10.410156 10.09375 C 10.410156 10.007812 10.484375 10.070312 11.050781 10.597656 Z M 3.980469 10.71875 C 4.242188 11.035156 4.523438 11.226562 5.179688 11.554688 L 5.566406 11.742188 L 5.652344 12.074219 C 5.703125 12.257812 5.734375 12.410156 5.726562 12.421875 C 5.71875 12.425781 4.804688 12.441406 3.695312 12.453125 L 1.675781 12.46875 L 1.410156 11.804688 L 1.558594 11.695312 C 2.046875 11.292969 3.523438 10.40625 3.679688 10.414062 C 3.710938 10.414062 3.84375 10.550781 3.980469 10.71875 Z M 10.109375 10.953125 C 10.140625 11.03125 10.175781 11.285156 10.191406 11.515625 L 10.222656 11.945312 L 9.890625 11.90625 C 9.21875 11.835938 9.023438 11.742188 9.347656 11.648438 C 9.644531 11.5625 9.679688 11.273438 9.398438 11.234375 C 9.207031 11.203125 9.289062 11.121094 9.699219 10.914062 C 9.953125 10.78125 10.050781 10.796875 10.109375 10.953125 Z M 6.613281 10.96875 C 6.714844 11 6.976562 11.101562 7.191406 11.203125 C 7.570312 11.375 7.578125 11.378906 7.476562 11.457031 C 7.414062 11.496094 7.363281 11.578125 7.363281 11.628906 C 7.363281 11.746094 7.546875 11.882812 7.703125 11.882812 C 7.917969 11.882812 7.867188 11.972656 7.5 12.253906 C 7.046875 12.59375 6.570312 12.808594 6.496094 12.695312 C 6.300781 12.386719 6.160156 11.363281 6.265625 11.03125 C 6.308594 10.902344 6.347656 10.898438 6.613281 10.96875 Z M 6.613281 10.96875 "/>
        <path style=" stroke:none;fill-rule:nonzero;fill:#6E6E6E;" d="M 6.398438 2.585938 C 5.960938 2.726562 5.53125 3.152344 5.40625 3.570312 C 5.335938 3.804688 5.335938 3.839844 5.421875 4.007812 C 5.496094 4.152344 5.539062 4.1875 5.664062 4.1875 C 5.789062 4.1875 5.84375 4.144531 6.015625 3.890625 C 6.300781 3.46875 6.445312 3.375 6.792969 3.375 C 6.953125 3.375 7.113281 3.355469 7.148438 3.335938 C 7.347656 3.203125 7.308594 2.820312 7.078125 2.664062 C 6.929688 2.570312 6.570312 2.527344 6.398438 2.585938 Z M 6.398438 2.585938 "/>
        <path style=" stroke:none;fill-rule:nonzero;fill:#6E6E6E;" d="M 7.273438 3.972656 C 7.15625 4.085938 7.214844 4.484375 7.4375 4.992188 C 7.476562 5.074219 7.449219 5.078125 7.125 5.046875 C 6.738281 5.011719 6.679688 5.042969 6.621094 5.316406 C 6.554688 5.664062 7.054688 5.941406 7.601562 5.859375 C 8.074219 5.792969 8.292969 5.605469 8.296875 5.261719 C 8.304688 5.066406 8.277344 5.007812 8.128906 4.859375 C 8.039062 4.761719 7.882812 4.515625 7.773438 4.304688 C 7.628906 4.007812 7.566406 3.929688 7.464844 3.921875 C 7.394531 3.910156 7.308594 3.9375 7.273438 3.972656 Z M 7.273438 3.972656 "/>
    </g>
</svg>
