<?xml version="1.0" encoding="UTF-8"?>
<svg xmlns="http://www.w3.org/2000/svg" xmlns:xlink="http://www.w3.org/1999/xlink" width="16pt" height="16pt" viewBox="0 0 16 16" version="1.1">
<g id="surface1">
<path style=" stroke:none;fill-rule:nonzero;fill:rgb(43.137255%,43.137255%,43.137255%);fill-opacity:1;" d="M 11.765625 4.234375 C 10.800781 3.265625 9.472656 2.667969 8 2.667969 C 5.054688 2.667969 2.667969 5.054688 2.667969 8 C 2.667969 10.945312 5.054688 13.332031 8 13.332031 C 10.488281 13.332031 12.558594 11.632812 13.152344 9.332031 L 11.765625 9.332031 C 11.21875 10.886719 9.738281 12 8 12 C 5.789062 12 4 10.210938 4 8 C 4 5.789062 5.789062 4 8 4 C 9.105469 4 10.09375 4.460938 10.8125 5.1875 L 8.667969 7.332031 L 13.332031 7.332031 L 13.332031 2.667969 Z M 11.765625 4.234375 "/>
</g>
</svg>
