<?xml version="1.0" encoding="UTF-8"?>
<svg xmlns="http://www.w3.org/2000/svg" xmlns:xlink="http://www.w3.org/1999/xlink" width="16pt" height="16pt" viewBox="0 0 16 16" version="1.1">
<g id="surface1">
<path style=" stroke:none;fill-rule:nonzero;fill:#6E6E6E;" d="M 4.121094 10.425781 C 4.921875 10.425781 5.574219 11.078125 5.574219 11.878906 C 5.574219 12.667969 4.921875 13.332031 4.121094 13.332031 C 3.332031 13.332031 2.667969 12.667969 2.667969 11.878906 C 2.667969 11.078125 3.316406 10.425781 4.121094 10.425781 M 2.667969 2.960938 C 8.394531 2.960938 13.039062 7.605469 13.039062 13.332031 L 11.152344 13.332031 C 11.152344 8.644531 7.355469 4.847656 2.667969 4.847656 L 2.667969 2.960938 M 2.667969 6.734375 C 6.3125 6.734375 9.265625 9.6875 9.265625 13.332031 L 7.378906 13.332031 C 7.378906 10.730469 5.269531 8.621094 2.667969 8.621094 Z M 2.667969 6.734375 "/>
</g>
</svg>
