<?xml version="1.0" encoding="UTF-8"?>
<svg xmlns="http://www.w3.org/2000/svg" xmlns:xlink="http://www.w3.org/1999/xlink" width="16pt" height="16pt" viewBox="0 0 16 16" version="1.1">
<g id="surface1">
<path style=" stroke:none;fill:#AFB1B3;" d="M 8.667969 12.667969 L 9.332031 12.667969 C 9.703125 12.667969 10 12.964844 10 13.332031 L 14.667969 13.332031 L 14.667969 14.667969 L 10 14.667969 C 10 15.035156 9.703125 15.332031 9.332031 15.332031 L 6.667969 15.332031 C 6.296875 15.332031 6 15.035156 6 14.667969 L 1.332031 14.667969 L 1.332031 13.332031 L 6 13.332031 C 6 12.964844 6.296875 12.667969 6.667969 12.667969 L 7.332031 12.667969 L 7.332031 11.332031 L 2.667969 11.332031 C 2.296875 11.332031 2 11.035156 2 10.667969 L 2 8 C 2 7.632812 2.296875 7.332031 2.667969 7.332031 L 13.332031 7.332031 C 13.703125 7.332031 14 7.632812 14 8 L 14 10.667969 C 14 11.035156 13.703125 11.332031 13.332031 11.332031 L 8.667969 11.332031 L 8.667969 12.667969 M 2.667969 2 L 13.332031 2 C 13.703125 2 14 2.296875 14 2.667969 L 14 5.332031 C 14 5.703125 13.703125 6 13.332031 6 L 2.667969 6 C 2.296875 6 2 5.703125 2 5.332031 L 2 2.667969 C 2 2.296875 2.296875 2 2.667969 2 M 6 4.667969 L 6.667969 4.667969 L 6.667969 3.332031 L 6 3.332031 L 6 4.667969 M 6 10 L 6.667969 10 L 6.667969 8.667969 L 6 8.667969 L 6 10 M 3.332031 3.332031 L 3.332031 4.667969 L 4.667969 4.667969 L 4.667969 3.332031 L 3.332031 3.332031 M 3.332031 8.667969 L 3.332031 10 L 4.667969 10 L 4.667969 8.667969 Z M 3.332031 8.667969 "/>
</g>
</svg>
