<?xml version="1.0" encoding="UTF-8"?>
<svg xmlns="http://www.w3.org/2000/svg" xmlns:xlink="http://www.w3.org/1999/xlink" width="16pt" height="16pt" viewBox="0 0 16 16" version="1.1">
<g id="surface1">
<path style=" stroke:none;fill-rule:nonzero;fill:#AFB1B3;" d="M 8 10.332031 C 6.710938 10.332031 5.667969 9.289062 5.667969 8 C 5.667969 6.710938 6.710938 5.667969 8 5.667969 C 9.289062 5.667969 10.332031 6.710938 10.332031 8 C 10.332031 9.289062 9.289062 10.332031 8 10.332031 M 12.953125 8.648438 C 12.980469 8.433594 13 8.21875 13 8 C 13 7.78125 12.980469 7.558594 12.953125 7.332031 L 14.359375 6.246094 C 14.488281 6.148438 14.519531 5.964844 14.441406 5.820312 L 13.105469 3.511719 C 13.027344 3.367188 12.847656 3.308594 12.699219 3.367188 L 11.039062 4.035156 C 10.691406 3.773438 10.332031 3.546875 9.914062 3.378906 L 9.667969 1.613281 C 9.640625 1.453125 9.5 1.332031 9.332031 1.332031 L 6.667969 1.332031 C 6.5 1.332031 6.359375 1.453125 6.332031 1.613281 L 6.085938 3.378906 C 5.667969 3.546875 5.308594 3.773438 4.960938 4.035156 L 3.300781 3.367188 C 3.152344 3.308594 2.972656 3.367188 2.894531 3.511719 L 1.558594 5.820312 C 1.472656 5.964844 1.511719 6.148438 1.640625 6.246094 L 3.046875 7.332031 C 3.019531 7.558594 3 7.78125 3 8 C 3 8.21875 3.019531 8.433594 3.046875 8.648438 L 1.640625 9.753906 C 1.511719 9.851562 1.472656 10.035156 1.558594 10.179688 L 2.894531 12.488281 C 2.972656 12.632812 3.152344 12.6875 3.300781 12.632812 L 4.960938 11.960938 C 5.308594 12.226562 5.667969 12.453125 6.085938 12.621094 L 6.332031 14.386719 C 6.359375 14.546875 6.5 14.667969 6.667969 14.667969 L 9.332031 14.667969 C 9.5 14.667969 9.640625 14.546875 9.667969 14.386719 L 9.914062 12.621094 C 10.332031 12.445312 10.691406 12.226562 11.039062 11.960938 L 12.699219 12.632812 C 12.847656 12.6875 13.027344 12.632812 13.105469 12.488281 L 14.441406 10.179688 C 14.519531 10.035156 14.488281 9.851562 14.359375 9.753906 Z M 12.953125 8.648438 "/>
</g>
</svg>
